<svg width="16" height="17" viewBox="0 0 16 17" fill="none" xmlns="http://www.w3.org/2000/svg">
<path d="M6.38336 8.49999L3.80002 5.89999C3.6778 5.77777 3.6138 5.62488 3.60802 5.44133C3.60225 5.25777 3.66625 5.09955 3.80002 4.96666C3.92225 4.84444 4.0778 4.78333 4.26669 4.78333C4.45558 4.78333 4.61114 4.84444 4.73336 4.96666L7.80002 8.03333C7.86669 8.09999 7.91402 8.17221 7.94203 8.24999C7.97003 8.32777 7.9838 8.4111 7.98336 8.49999C7.98336 8.58888 7.96958 8.67221 7.94203 8.74999C7.91447 8.82777 7.86714 8.89999 7.80002 8.96666L4.73336 12.0333C4.61114 12.1555 4.45847 12.2195 4.27536 12.2253C4.09225 12.2311 3.9338 12.1671 3.80002 12.0333C3.6778 11.9111 3.61669 11.7555 3.61669 11.5667C3.61669 11.3778 3.6778 11.2222 3.80002 11.1L6.38336 8.49999ZM10.7834 8.49999L8.20003 5.89999C8.0778 5.77777 8.0138 5.62488 8.00803 5.44133C8.00225 5.25777 8.06625 5.09955 8.20003 4.96666C8.32225 4.84444 8.4778 4.78333 8.66669 4.78333C8.85558 4.78333 9.01114 4.84444 9.13336 4.96666L12.2 8.03333C12.2667 8.09999 12.314 8.17221 12.342 8.24999C12.37 8.32777 12.3838 8.4111 12.3834 8.49999C12.3834 8.58888 12.3694 8.67221 12.3414 8.74999C12.3134 8.82777 12.2662 8.89999 12.2 8.96666L9.13336 12.0333C9.01114 12.1555 8.85847 12.2195 8.67536 12.2253C8.49225 12.2311 8.3338 12.1671 8.20003 12.0333C8.0778 11.9111 8.01669 11.7555 8.01669 11.5667C8.01669 11.3778 8.0778 11.2222 8.20003 11.1L10.7834 8.49999Z" fill="#434343"/>
</svg>
