<svg width="16" height="17" viewBox="0 0 16 17" fill="none" xmlns="http://www.w3.org/2000/svg">
<path d="M5.21671 8.5L7.80004 11.1C7.92227 11.2222 7.98627 11.3751 7.99204 11.5587C7.99782 11.7422 7.93382 11.9004 7.80004 12.0333C7.67782 12.1556 7.52227 12.2167 7.33338 12.2167C7.14449 12.2167 6.98893 12.1556 6.86671 12.0333L3.80004 8.96667C3.73338 8.9 3.68604 8.82778 3.65804 8.75C3.63004 8.67222 3.61627 8.58889 3.61671 8.5C3.61671 8.41111 3.63071 8.32778 3.65871 8.25C3.68671 8.17222 3.73382 8.1 3.80004 8.03333L6.86671 4.96667C6.98893 4.84444 7.14182 4.78067 7.32538 4.77533C7.50893 4.77 7.66715 4.83378 7.80004 4.96667C7.92227 5.08889 7.98338 5.24444 7.98338 5.43333C7.98338 5.62222 7.92227 5.77778 7.80004 5.9L5.21671 8.5ZM9.61671 8.5L12.2 11.1C12.3223 11.2222 12.3863 11.3751 12.392 11.5587C12.3978 11.7422 12.3338 11.9004 12.2 12.0333C12.0778 12.1556 11.9223 12.2167 11.7334 12.2167C11.5445 12.2167 11.3889 12.1556 11.2667 12.0333L8.20004 8.96667C8.13338 8.9 8.08604 8.82778 8.05804 8.75C8.03004 8.67222 8.01649 8.58889 8.01738 8.5C8.01738 8.41111 8.03138 8.32778 8.05938 8.25C8.08738 8.17222 8.13449 8.1 8.20071 8.03333L11.2674 4.96667C11.3896 4.84444 11.5425 4.78067 11.726 4.77533C11.9096 4.77 12.0678 4.83378 12.2007 4.96667C12.3229 5.08889 12.384 5.24444 12.384 5.43333C12.384 5.62222 12.3229 5.77778 12.2007 5.9L9.61671 8.5Z" fill="#434343"/>
</svg>
