<svg width="17" height="17" viewBox="0 0 17 17" fill="none" xmlns="http://www.w3.org/2000/svg">
<path d="M9.59678 8.49995L16.0446 2.05218C16.172 1.90339 16.2386 1.71199 16.231 1.51625C16.2234 1.3205 16.1423 1.13481 16.0038 0.996294C15.8653 0.857776 15.6796 0.776628 15.4838 0.769068C15.2881 0.761507 15.0967 0.82809 14.9479 0.95551L8.50011 7.40329L2.05234 0.947732C1.90588 0.801274 1.70724 0.718994 1.50011 0.718994C1.29299 0.718994 1.09435 0.801274 0.947893 0.947732C0.801434 1.09419 0.719155 1.29283 0.719155 1.49995C0.719155 1.70708 0.801434 1.90572 0.947893 2.05218L7.40345 8.49995L0.947893 14.9477C0.866473 15.0175 0.800346 15.1033 0.753662 15.1998C0.706977 15.2962 0.680742 15.4014 0.676605 15.5085C0.672468 15.6156 0.690516 15.7224 0.729619 15.8222C0.768721 15.922 0.828033 16.0127 0.903831 16.0885C0.979629 16.1643 1.07028 16.2236 1.17009 16.2627C1.26989 16.3018 1.37671 16.3198 1.48382 16.3157C1.59094 16.3115 1.69604 16.2853 1.79254 16.2386C1.88903 16.1919 1.97483 16.1258 2.04456 16.0444L8.50011 9.59662L14.9479 16.0444C15.0967 16.1718 15.2881 16.2384 15.4838 16.2308C15.6796 16.2233 15.8653 16.1421 16.0038 16.0036C16.1423 15.8651 16.2234 15.6794 16.231 15.4837C16.2386 15.2879 16.172 15.0965 16.0446 14.9477L9.59678 8.49995Z" fill="white"/>
</svg>
