<svg width="22" height="23" viewBox="0 0 22 23" fill="none" xmlns="http://www.w3.org/2000/svg">
<g clip-path="url(#clip0_63_194)">
<path d="M11 11.5C12.6671 11.5 14.2659 10.9205 15.4447 9.88909C16.6235 8.85764 17.2857 7.45869 17.2857 6C17.2857 4.54131 16.6235 3.14236 15.4447 2.11091C14.2659 1.07946 12.6671 0.5 11 0.5C9.33292 0.5 7.73413 1.07946 6.55533 2.11091C5.37653 3.14236 4.71429 4.54131 4.71429 6C4.71429 7.45869 5.37653 8.85764 6.55533 9.88909C7.73413 10.9205 9.33292 11.5 11 11.5ZM6.28571 13.8719C2.65179 14.8043 0 17.7434 0 21.2238C0 21.9285 0.653125 22.5 1.45848 22.5H20.5415C21.3469 22.5 22 21.9285 22 21.2238C22 17.7434 19.3482 14.8043 15.7143 13.8719V16.0547C17.0696 16.3598 18.0714 17.4383 18.0714 18.7188V20.4375C18.0714 20.8156 17.7179 21.125 17.2857 21.125H16.5C16.0679 21.125 15.7143 20.8156 15.7143 20.4375C15.7143 20.0594 16.0679 19.75 16.5 19.75V18.7188C16.5 17.9582 15.7978 17.3438 14.9286 17.3438C14.0594 17.3438 13.3571 17.9582 13.3571 18.7188V19.75C13.7893 19.75 14.1429 20.0594 14.1429 20.4375C14.1429 20.8156 13.7893 21.125 13.3571 21.125H12.5714C12.1393 21.125 11.7857 20.8156 11.7857 20.4375V18.7188C11.7857 17.4383 12.7875 16.3598 14.1429 16.0547V13.6012C13.8482 13.5754 13.5487 13.5625 13.2442 13.5625H8.7558C8.45134 13.5625 8.15179 13.5754 7.85714 13.6012V16.4113C8.99152 16.7078 9.82143 17.6273 9.82143 18.7188C9.82143 20.0465 8.58884 21.125 7.07143 21.125C5.55402 21.125 4.32143 20.0465 4.32143 18.7188C4.32143 17.6273 5.15134 16.7078 6.28571 16.4113V13.8719ZM7.07143 19.75C7.384 19.75 7.68378 19.6414 7.9048 19.448C8.12583 19.2546 8.25 18.9923 8.25 18.7188C8.25 18.4452 8.12583 18.1829 7.9048 17.9895C7.68378 17.7961 7.384 17.6875 7.07143 17.6875C6.75885 17.6875 6.45908 17.7961 6.23805 17.9895C6.01703 18.1829 5.89286 18.4452 5.89286 18.7188C5.89286 18.9923 6.01703 19.2546 6.23805 19.448C6.45908 19.6414 6.75885 19.75 7.07143 19.75Z" fill="#105965"/>
</g>
<defs>
<clipPath id="clip0_63_194">
<rect width="22" height="22" fill="white" transform="translate(0 0.5)"/>
</clipPath>
</defs>
</svg>
