<svg width="24" height="25" viewBox="0 0 24 25" fill="none" xmlns="http://www.w3.org/2000/svg">
<path d="M23.8572 18.9287H20.8572V15.9287H18.8572V18.9287H15.8572V20.9287H18.8572V23.9287H20.8572V20.9287H23.8572M6.85718 2.92871C6.32674 2.92871 5.81804 3.13942 5.44296 3.5145C5.06789 3.88957 4.85718 4.39828 4.85718 4.92871V20.9287C4.85718 22.0387 5.74718 22.9287 6.85718 22.9287H14.6672C14.3072 22.3087 14.0572 21.6287 13.9372 20.9287H6.85718V4.92871H13.8572V9.92871H18.8572V14.0087C19.1872 13.9587 19.5272 13.9287 19.8572 13.9287C20.1972 13.9287 20.5272 13.9587 20.8572 14.0087V8.92871L14.8572 2.92871M8.85718 12.9287V14.9287H16.8572V12.9287M8.85718 16.9287V18.9287H13.8572V16.9287H8.85718Z" fill="white"/>
</svg>
