<svg width="24" height="24" viewBox="0 0 24 24" fill="none" xmlns="http://www.w3.org/2000/svg">
<path d="M8.79995 11.7001C7.73909 11.7001 6.72167 11.2787 5.97152 10.5285C5.22138 9.77838 4.79995 8.76096 4.79995 7.7001V4.5001C4.79995 4.28792 4.88424 4.08444 5.03427 3.93441C5.1843 3.78438 5.38778 3.7001 5.59995 3.7001H6.39995C6.61212 3.7001 6.81561 3.61581 6.96564 3.46578C7.11567 3.31575 7.19995 3.11227 7.19995 2.9001C7.19995 2.68792 7.11567 2.48444 6.96564 2.33441C6.81561 2.18438 6.61212 2.1001 6.39995 2.1001H5.59995C4.96343 2.1001 4.35298 2.35295 3.9029 2.80304C3.45281 3.25313 3.19995 3.86358 3.19995 4.5001V7.7001C3.20098 8.60389 3.42137 9.49392 3.84219 10.2938C4.26301 11.0936 4.87169 11.7793 5.61595 12.2921C6.33101 12.9225 6.91092 13.6913 7.32066 14.552C7.7304 15.4128 7.96148 16.3476 7.99995 17.3001C7.99995 18.7853 8.58995 20.2097 9.64015 21.2599C10.6904 22.3101 12.1147 22.9001 13.6 22.9001C15.0852 22.9001 16.5095 22.3101 17.5598 21.2599C18.61 20.2097 19.2 18.7853 19.2 17.3001V16.3881C19.9541 16.1934 20.6113 15.7303 21.0484 15.0857C21.4856 14.4411 21.6726 13.6592 21.5744 12.8865C21.4763 12.1138 21.0997 11.4035 20.5153 10.8886C19.9309 10.3738 19.1788 10.0897 18.4 10.0897C17.6211 10.0897 16.869 10.3738 16.2846 10.8886C15.7002 11.4035 15.3236 12.1138 15.2255 12.8865C15.1273 13.6592 15.3143 14.4411 15.7515 15.0857C16.1886 15.7303 16.8458 16.1934 17.6 16.3881V17.3001C17.6 18.361 17.1785 19.3784 16.4284 20.1285C15.6782 20.8787 14.6608 21.3001 13.6 21.3001C12.5391 21.3001 11.5217 20.8787 10.7715 20.1285C10.0214 19.3784 9.59995 18.361 9.59995 17.3001C9.64045 16.3464 9.87403 15.4109 10.2866 14.5501C10.6991 13.6893 11.282 12.9211 12 12.2921C12.7413 11.7776 13.3468 11.091 13.7648 10.2913C14.1828 9.49158 14.4007 8.60247 14.4 7.7001V4.5001C14.4 3.86358 14.1471 3.25313 13.697 2.80304C13.2469 2.35295 12.6365 2.1001 12 2.1001H11.2C10.9878 2.1001 10.7843 2.18438 10.6343 2.33441C10.4842 2.48444 10.4 2.68792 10.4 2.9001C10.4 3.11227 10.4842 3.31575 10.6343 3.46578C10.7843 3.61581 10.9878 3.7001 11.2 3.7001H12C12.2121 3.7001 12.4156 3.78438 12.5656 3.93441C12.7157 4.08444 12.8 4.28792 12.8 4.5001V7.7001C12.8 8.22539 12.6965 8.74553 12.4955 9.23083C12.2945 9.71613 11.9998 10.1571 11.6284 10.5285C11.2569 10.9 10.816 11.1946 10.3307 11.3956C9.84538 11.5966 9.32524 11.7001 8.79995 11.7001ZM18.4 14.9001C17.9756 14.9001 17.5686 14.7315 17.2686 14.4315C16.9685 14.1314 16.8 13.7244 16.8 13.3001C16.8 12.8758 16.9685 12.4688 17.2686 12.1687C17.5686 11.8687 17.9756 11.7001 18.4 11.7001C18.8243 11.7001 19.2313 11.8687 19.5313 12.1687C19.8314 12.4688 20 12.8758 20 13.3001C20 13.7244 19.8314 14.1314 19.5313 14.4315C19.2313 14.7315 18.8243 14.9001 18.4 14.9001Z" fill="#23A2AF"/>
</svg>
