<svg width="18" height="18" viewBox="0 0 18 18" fill="none" xmlns="http://www.w3.org/2000/svg">
<path d="M17.7 9.85L16.7 10.85L14.65 8.8L15.65 7.8C15.7528 7.69923 15.891 7.64278 16.035 7.64278C16.179 7.64278 16.3172 7.69923 16.42 7.8L17.7 9.08C17.91 9.29 17.91 9.64 17.7 9.85ZM8 15.44L14.06 9.38L16.11 11.43L10.06 17.5H8V15.44ZM8 10.5C3.58 10.5 0 12.29 0 14.5V16.5H6V14.61L10 10.61C9.34 10.53 8.67 10.5 8 10.5ZM8 0.5C6.93913 0.5 5.92172 0.921427 5.17157 1.67157C4.42143 2.42172 4 3.43913 4 4.5C4 5.56087 4.42143 6.57828 5.17157 7.32843C5.92172 8.07857 6.93913 8.5 8 8.5C9.06087 8.5 10.0783 8.07857 10.8284 7.32843C11.5786 6.57828 12 5.56087 12 4.5C12 3.43913 11.5786 2.42172 10.8284 1.67157C10.0783 0.921427 9.06087 0.5 8 0.5Z" fill="#23A2AF"/>
</svg>
