<svg width="18" height="19" viewBox="0 0 18 19" fill="none" xmlns="http://www.w3.org/2000/svg">
<path d="M16.905 16.34L15.3075 14.75L16.905 13.16L15.84 12.095L14.25 13.6925L12.66 12.095L11.595 13.16L13.1925 14.75L11.595 16.34L12.66 17.405L14.25 15.8075L15.84 17.405M4.5 2C4.10218 2 3.72064 2.15804 3.43934 2.43934C3.15804 2.72064 3 3.10218 3 3.5V15.5C3 16.3325 3.6675 17 4.5 17H10.3575C10.0875 16.535 9.9 16.025 9.81 15.5H4.5V3.5H9.75V7.25H13.5V10.31C13.7475 10.2725 14.0025 10.25 14.25 10.25C14.505 10.25 14.7525 10.2725 15 10.31V6.5L10.5 2M6 9.5V11H12V9.5M6 12.5V14H9.75V12.5H6Z" fill="#690303"/>
</svg>
