<svg width="18" height="19" viewBox="0 0 18 19" fill="none" xmlns="http://www.w3.org/2000/svg">
<g clip-path="url(#clip0_31_314)">
<path d="M12.75 15.125C13.17 15.125 13.5 15.455 13.5 15.875C13.5 16.295 13.17 16.625 12.75 16.625C12.33 16.625 12 16.295 12 15.875C12 15.455 12.33 15.125 12.75 15.125ZM12.75 12.875C10.7025 12.875 8.955 14.12 8.25 15.875C8.955 17.63 10.7025 18.875 12.75 18.875C14.7975 18.875 16.545 17.63 17.25 15.875C16.545 14.12 14.7975 12.875 12.75 12.875ZM12.75 17.75C12.2527 17.75 11.7758 17.5525 11.4242 17.2008C11.0725 16.8492 10.875 16.3723 10.875 15.875C10.875 15.3777 11.0725 14.9008 11.4242 14.5492C11.7758 14.1975 12.2527 14 12.75 14C13.2473 14 13.7242 14.1975 14.0758 14.5492C14.4275 14.9008 14.625 15.3777 14.625 15.875C14.625 16.3723 14.4275 16.8492 14.0758 17.2008C13.7242 17.5525 13.2473 17.75 12.75 17.75ZM6.9525 16.625H4.5V4.625H9.75V8.375H13.5V11.4275C14.025 11.4875 14.52 11.615 15 11.795V7.625L10.5 3.125H4.5C4.10218 3.125 3.72064 3.28304 3.43934 3.56434C3.15804 3.84564 3 4.22718 3 4.625V16.625C3 17.0228 3.15804 17.4044 3.43934 17.6857C3.72064 17.967 4.10218 18.125 4.5 18.125H7.875C7.49671 17.6721 7.18599 17.1669 6.9525 16.625Z" fill="#105965"/>
</g>
<defs>
<clipPath id="clip0_31_314">
<rect width="18" height="18" fill="white" transform="translate(0 0.5)"/>
</clipPath>
</defs>
</svg>
