<svg width="23" height="25" viewBox="0 0 23 25" fill="none" xmlns="http://www.w3.org/2000/svg">
<path d="M15.3402 14.1007C16.0297 13.5535 16.5365 12.7963 16.7891 11.9355C17.0417 11.0746 17.0276 10.1535 16.7487 9.30139C16.4698 8.44931 15.9401 7.70916 15.2341 7.18496C14.528 6.66076 13.6812 6.37885 12.8125 6.37885C11.9438 6.37885 11.097 6.66076 10.3909 7.18496C9.68492 7.70916 9.15523 8.44931 8.87631 9.30139C8.5974 10.1535 8.58326 11.0746 8.83591 11.9355C9.08855 12.7963 9.59526 13.5535 10.2848 14.1007C8.99095 14.6012 7.86358 15.477 7.0375 16.6234C6.93307 16.7676 6.88823 16.9489 6.91285 17.1274C6.93746 17.3058 7.02951 17.4668 7.16875 17.575C7.30799 17.6832 7.48301 17.7296 7.65531 17.7041C7.82761 17.6786 7.98307 17.5833 8.0875 17.4391C8.63765 16.6793 9.35103 16.0627 10.1711 15.638C10.9913 15.2133 11.8956 14.9922 12.8125 14.9922C13.7294 14.9922 14.6337 15.2133 15.4539 15.638C16.274 16.0627 16.9874 16.6793 17.5375 17.4391C17.6419 17.5833 17.7974 17.6786 17.9697 17.7041C18.142 17.7296 18.317 17.6832 18.4563 17.575C18.5955 17.4668 18.6875 17.3058 18.7122 17.1274C18.7368 16.9489 18.6919 16.7676 18.5875 16.6234C17.7614 15.477 16.6341 14.6012 15.3402 14.1007ZM9.96875 10.6875C9.96875 10.105 10.1355 9.53553 10.448 9.05117C10.7605 8.56682 11.2046 8.18931 11.7242 7.96639C12.2439 7.74346 12.8157 7.68513 13.3673 7.79878C13.9189 7.91243 14.4256 8.19294 14.8233 8.60485C15.221 9.01676 15.4919 9.54156 15.6016 10.1129C15.7113 10.6842 15.655 11.2764 15.4398 11.8146C15.2245 12.3528 14.8601 12.8128 14.3924 13.1364C13.9248 13.4601 13.3749 13.6328 12.8125 13.6328C12.0583 13.6328 11.335 13.3225 10.8017 12.7702C10.2684 12.2178 9.96875 11.4686 9.96875 10.6875ZM20.6875 0.945312H4.9375C4.53139 0.945312 4.14191 1.1124 3.85474 1.40982C3.56758 1.70724 3.40625 2.11063 3.40625 2.53125V5.47656H1.4375C1.26345 5.47656 1.09653 5.54817 0.973461 5.67564C0.85039 5.8031 0.78125 5.97599 0.78125 6.15625C0.78125 6.33651 0.85039 6.5094 0.973461 6.63686C1.09653 6.76433 1.26345 6.83594 1.4375 6.83594H3.40625V11.8203H1.4375C1.26345 11.8203 1.09653 11.8919 0.973461 12.0194C0.85039 12.1469 0.78125 12.3197 0.78125 12.5C0.78125 12.6803 0.85039 12.8531 0.973461 12.9806C1.09653 13.1081 1.26345 13.1797 1.4375 13.1797H3.40625V18.1641H1.4375C1.26345 18.1641 1.09653 18.2357 0.973461 18.3631C0.85039 18.4906 0.78125 18.6635 0.78125 18.8438C0.78125 19.024 0.85039 19.1969 0.973461 19.3244C1.09653 19.4518 1.26345 19.5234 1.4375 19.5234H3.40625V22.4688C3.40625 22.8894 3.56758 23.2928 3.85474 23.5902C4.14191 23.8876 4.53139 24.0547 4.9375 24.0547H20.6875C21.0936 24.0547 21.4831 23.8876 21.7703 23.5902C22.0574 23.2928 22.2188 22.8894 22.2188 22.4688V2.53125C22.2188 2.11063 22.0574 1.70724 21.7703 1.40982C21.4831 1.1124 21.0936 0.945312 20.6875 0.945312ZM20.9062 22.4688C20.9062 22.5288 20.8832 22.5865 20.8422 22.629C20.8012 22.6714 20.7455 22.6953 20.6875 22.6953H4.9375C4.87948 22.6953 4.82384 22.6714 4.78282 22.629C4.7418 22.5865 4.71875 22.5288 4.71875 22.4688V2.53125C4.71875 2.47116 4.7418 2.41353 4.78282 2.37105C4.82384 2.32856 4.87948 2.30469 4.9375 2.30469H20.6875C20.7455 2.30469 20.8012 2.32856 20.8422 2.37105C20.8832 2.41353 20.9062 2.47116 20.9062 2.53125V22.4688Z" fill="#054955"/>
</svg>
