<svg width="18" height="19" viewBox="0 0 18 19" fill="none" xmlns="http://www.w3.org/2000/svg">
<g clip-path="url(#clip0_31_312)">
<path d="M5.625 2C5.02826 2 4.45597 2.23705 4.03401 2.65901C3.61205 3.08097 3.375 3.65326 3.375 4.25V15.4978C3.375 16.0945 3.61205 16.6668 4.03401 17.0887C4.45597 17.5107 5.02826 17.7478 5.625 17.7478H6.80175L7.083 16.6228H5.625C5.32663 16.6228 5.04048 16.5042 4.8295 16.2932C4.61853 16.0823 4.5 15.7961 4.5 15.4978V4.25C4.5 3.95163 4.61853 3.66548 4.8295 3.4545C5.04048 3.24353 5.32663 3.125 5.625 3.125H9V5.9375C9 6.38466 9.17748 6.81355 9.49346 7.12995C9.80944 7.44635 10.2381 7.6244 10.6852 7.625H13.4977V9.245C13.8357 9.01416 14.2194 8.85877 14.6227 8.78938V6.96463C14.6224 6.51722 14.4443 6.08829 14.1277 5.77213L10.8506 2.49388C10.5343 2.17773 10.1054 2.0001 9.65812 2H5.625ZM13.2649 6.5H10.6875C10.5383 6.5 10.3952 6.44074 10.2898 6.33525C10.1843 6.22976 10.125 6.08668 10.125 5.9375V3.35675L13.266 6.49775L13.2649 6.5ZM14.6227 9.9425C14.3413 10.0257 14.0853 10.1781 13.878 10.3858L9.05625 15.2075C8.66508 15.5987 8.38478 16.0867 8.244 16.6216L8.23387 16.6588L7.89412 18.0211C7.86546 18.1359 7.86697 18.2562 7.89849 18.3702C7.93001 18.4842 7.99048 18.5882 8.07403 18.672C8.15757 18.7557 8.26136 18.8165 8.37531 18.8483C8.48926 18.8801 8.60951 18.882 8.72437 18.8536L10.0867 18.5128C10.636 18.3756 11.1376 18.0917 11.538 17.6915L16.362 12.8675C16.6384 12.5917 16.8149 12.2317 16.8636 11.8443C16.9123 11.4569 16.8305 11.0643 16.6311 10.7287C16.4316 10.3931 16.1259 10.1335 15.7624 9.99111C15.3989 9.84872 14.9971 9.83161 14.6227 9.9425Z" fill="#02305A"/>
</g>
<defs>
<clipPath id="clip0_31_312">
<rect width="18" height="18" fill="white" transform="translate(0 0.5)"/>
</clipPath>
</defs>
</svg>
