<svg width="24" height="24" viewBox="0 0 24 24" fill="none" xmlns="http://www.w3.org/2000/svg">
<path d="M8 12V10H16V12H8ZM8 8V6H16V8H8ZM6 14H13.5C13.9833 14 14.4333 14.1043 14.85 14.313C15.2667 14.5217 15.6167 14.8173 15.9 15.2L18 17.95V4H6V14ZM6 20H17.05L14.325 16.425C14.225 16.2917 14.1043 16.1873 13.963 16.112C13.8217 16.0367 13.6673 15.9993 13.5 16H6V20ZM18 22H6C5.45 22 4.979 21.804 4.587 21.412C4.195 21.02 3.99934 20.5493 4 20V4C4 3.45 4.196 2.979 4.588 2.587C4.98 2.195 5.45067 1.99934 6 2H18C18.55 2 19.021 2.196 19.413 2.588C19.805 2.98 20.0007 3.45067 20 4V20C20 20.55 19.804 21.021 19.412 21.413C19.02 21.805 18.5493 22.0007 18 22Z" fill="#5E5E5E"/>
</svg>
