<svg width="24" height="25" viewBox="0 0 24 25" fill="none" xmlns="http://www.w3.org/2000/svg">
<path d="M21.7 13.85L20.7 14.85L18.65 12.8L19.65 11.8C19.7528 11.6992 19.891 11.6428 20.035 11.6428C20.179 11.6428 20.3172 11.6992 20.42 11.8L21.7 13.08C21.91 13.29 21.91 13.64 21.7 13.85ZM12 19.44L18.06 13.38L20.11 15.43L14.06 21.5H12V19.44ZM12 14.5C7.58 14.5 4 16.29 4 18.5V20.5H10V18.61L14 14.61C13.34 14.53 12.67 14.5 12 14.5ZM12 4.5C10.9391 4.5 9.92172 4.92143 9.17157 5.67157C8.42143 6.42172 8 7.43913 8 8.5C8 9.56087 8.42143 10.5783 9.17157 11.3284C9.92172 12.0786 10.9391 12.5 12 12.5C13.0609 12.5 14.0783 12.0786 14.8284 11.3284C15.5786 10.5783 16 9.56087 16 8.5C16 7.43913 15.5786 6.42172 14.8284 5.67157C14.0783 4.92143 13.0609 4.5 12 4.5Z" fill="#23A2AF"/>
</svg>
