<svg width="32" height="33" viewBox="0 0 32 33" fill="none" xmlns="http://www.w3.org/2000/svg">
<path d="M25.3333 4.50004C26.0406 4.50004 26.7189 4.78099 27.219 5.28109C27.719 5.78119 28 6.45946 28 7.16671V25.8334C28 26.5406 27.719 27.2189 27.219 27.719C26.7189 28.2191 26.0406 28.5 25.3333 28.5H6.66667C5.95942 28.5 5.28115 28.2191 4.78105 27.719C4.28095 27.2189 4 26.5406 4 25.8334V7.16671C4 6.45946 4.28095 5.78119 4.78105 5.28109C5.28115 4.78099 5.95942 4.50004 6.66667 4.50004H12.24C12.8 2.95337 14.2667 1.83337 16 1.83337C17.7333 1.83337 19.2 2.95337 19.76 4.50004H25.3333ZM16 4.50004C15.6464 4.50004 15.3072 4.64052 15.0572 4.89056C14.8071 5.14061 14.6667 5.47975 14.6667 5.83337C14.6667 6.187 14.8071 6.52613 15.0572 6.77618C15.3072 7.02623 15.6464 7.16671 16 7.16671C16.3536 7.16671 16.6928 7.02623 16.9428 6.77618C17.1929 6.52613 17.3333 6.187 17.3333 5.83337C17.3333 5.47975 17.1929 5.14061 16.9428 4.89056C16.6928 4.64052 16.3536 4.50004 16 4.50004ZM9.33333 9.83337V7.16671H6.66667V25.8334H25.3333V7.16671H22.6667V9.83337H9.33333ZM16 12.5C16.7072 12.5 17.3855 12.781 17.8856 13.2811C18.3857 13.7812 18.6667 14.4595 18.6667 15.1667C18.6667 15.874 18.3857 16.5522 17.8856 17.0523C17.3855 17.5524 16.7072 17.8334 16 17.8334C15.2928 17.8334 14.6145 17.5524 14.1144 17.0523C13.6143 16.5522 13.3333 15.874 13.3333 15.1667C13.3333 14.4595 13.6143 13.7812 14.1144 13.2811C14.6145 12.781 15.2928 12.5 16 12.5ZM10.6667 23.1667V21.8334C10.6667 20.3667 13.0533 19.1667 16 19.1667C18.9467 19.1667 21.3333 20.3667 21.3333 21.8334V23.1667H10.6667Z" fill="#6D6D6D"/>
</svg>
