<svg width="24" height="24" viewBox="0 0 24 24" fill="none" xmlns="http://www.w3.org/2000/svg">
<path d="M7 17C6.45 17 5.979 16.804 5.587 16.412C5.195 16.02 4.99934 15.5493 5 15V5C5 4.45 5.196 3.979 5.588 3.587C5.98 3.195 6.45067 2.99934 7 3H21C21.55 3 22.021 3.196 22.413 3.588C22.805 3.98 23.0007 4.45067 23 5V15C23 15.55 22.804 16.021 22.412 16.413C22.02 16.805 21.5493 17.0007 21 17H7ZM14 12.3L7 7.425V15H21V7.425L14 12.3ZM14 9.85L21 5H7L14 9.85ZM3 21C2.45 21 1.979 20.804 1.587 20.412C1.195 20.02 0.999335 19.5493 1 19V6.5H3V19H19.5V21H3Z" fill="#23A2AF"/>
</svg>
