<svg width="24" height="25" viewBox="0 0 24 25" fill="none" xmlns="http://www.w3.org/2000/svg">
<path d="M6 8.5C6 6.29 7.79 4.5 10 4.5C12.21 4.5 14 6.29 14 8.5C14 10.71 12.21 12.5 10 12.5C7.79 12.5 6 10.71 6 8.5ZM9.14 20.25L8.85 19.5L9.14 18.75C9.84 17 11.08 15.64 12.61 14.72C11.79 14.58 10.92 14.5 10 14.5C5.58 14.5 2 16.29 2 18.5V20.5H9.27C9.23 20.41 9.18 20.33 9.14 20.25ZM17 18.5C16.44 18.5 16 18.94 16 19.5C16 20.06 16.44 20.5 17 20.5C17.56 20.5 18 20.06 18 19.5C18 18.94 17.56 18.5 17 18.5ZM23 19.5C22.06 21.84 19.73 23.5 17 23.5C14.27 23.5 11.94 21.84 11 19.5C11.94 17.16 14.27 15.5 17 15.5C19.73 15.5 22.06 17.16 23 19.5ZM19.5 19.5C19.5 18.837 19.2366 18.2011 18.7678 17.7322C18.2989 17.2634 17.663 17 17 17C16.337 17 15.7011 17.2634 15.2322 17.7322C14.7634 18.2011 14.5 18.837 14.5 19.5C14.5 20.163 14.7634 20.7989 15.2322 21.2678C15.7011 21.7366 16.337 22 17 22C17.663 22 18.2989 21.7366 18.7678 21.2678C19.2366 20.7989 19.5 20.163 19.5 19.5Z" fill="#23A2AF"/>
</svg>
