<svg width="25" height="24" viewBox="0 0 25 24" fill="none" xmlns="http://www.w3.org/2000/svg">
<path d="M7.5 15H17.5V14.3125C17.5 13.3958 17.0417 12.6563 16.125 12.0938C15.2083 11.5313 14 11.25 12.5 11.25C11 11.25 9.79167 11.5313 8.875 12.0938C7.95834 12.6563 7.5 13.3958 7.5 14.3125V15ZM12.5 10C13.1875 10 13.7763 9.755 14.2663 9.265C14.7563 8.775 15.0008 8.18667 15 7.5C15 6.8125 14.755 6.22375 14.265 5.73375C13.775 5.24375 13.1867 4.99917 12.5 5C11.8125 5 11.2238 5.245 10.7338 5.735C10.2438 6.225 9.99917 6.81334 10 7.5C10 8.1875 10.245 8.77625 10.735 9.26625C11.225 9.75625 11.8133 10.0008 12.5 10ZM5 20L2.125 22.875C1.72917 23.2708 1.27584 23.3596 0.765002 23.1413C0.254169 22.9229 -0.000831297 22.5321 2.03583e-06 21.9688V2.5C2.03583e-06 1.8125 0.245002 1.22375 0.735002 0.733752C1.225 0.243752 1.81334 -0.000831211 2.5 2.12224e-06H22.5C23.1875 2.12224e-06 23.7763 0.245002 24.2663 0.735002C24.7563 1.225 25.0008 1.81334 25 2.5V17.5C25 18.1875 24.755 18.7763 24.265 19.2663C23.775 19.7563 23.1867 20.0008 22.5 20H5ZM2.5 17.5H22.5V2.5H2.5V17.5Z" fill="#054955"/>
</svg>
