<svg width="24" height="27" viewBox="0 0 24 27" fill="none" xmlns="http://www.w3.org/2000/svg">
<path d="M21.3333 3.00004C22.0406 3.00004 22.7189 3.28099 23.219 3.78109C23.719 4.28119 24 4.95946 24 5.66671V24.3334C24 25.0406 23.719 25.7189 23.219 26.219C22.7189 26.7191 22.0406 27 21.3333 27H2.66667C1.95942 27 1.28115 26.7191 0.781048 26.219C0.280951 25.7189 0 25.0406 0 24.3334V5.66671C0 4.95946 0.280951 4.28119 0.781048 3.78109C1.28115 3.28099 1.95942 3.00004 2.66667 3.00004H8.24C8.8 1.45337 10.2667 0.333374 12 0.333374C13.7333 0.333374 15.2 1.45337 15.76 3.00004H21.3333ZM12 3.00004C11.6464 3.00004 11.3072 3.14052 11.0572 3.39056C10.8071 3.64061 10.6667 3.97975 10.6667 4.33337C10.6667 4.687 10.8071 5.02613 11.0572 5.27618C11.3072 5.52623 11.6464 5.66671 12 5.66671C12.3536 5.66671 12.6928 5.52623 12.9428 5.27618C13.1929 5.02613 13.3333 4.687 13.3333 4.33337C13.3333 3.97975 13.1929 3.64061 12.9428 3.39056C12.6928 3.14052 12.3536 3.00004 12 3.00004ZM5.33333 8.33337V5.66671H2.66667V24.3334H21.3333V5.66671H18.6667V8.33337H5.33333ZM12 11C12.7072 11 13.3855 11.281 13.8856 11.7811C14.3857 12.2812 14.6667 12.9595 14.6667 13.6667C14.6667 14.374 14.3857 15.0522 13.8856 15.5523C13.3855 16.0524 12.7072 16.3334 12 16.3334C11.2928 16.3334 10.6145 16.0524 10.1144 15.5523C9.61429 15.0522 9.33333 14.374 9.33333 13.6667C9.33333 12.9595 9.61429 12.2812 10.1144 11.7811C10.6145 11.281 11.2928 11 12 11ZM6.66667 21.6667V20.3334C6.66667 18.8667 9.05333 17.6667 12 17.6667C14.9467 17.6667 17.3333 18.8667 17.3333 20.3334V21.6667H6.66667Z" fill="#6D6D6D"/>
</svg>
