<svg width="28" height="29" viewBox="0 0 28 29" fill="none" xmlns="http://www.w3.org/2000/svg">
<path d="M12.8333 14.5C11.55 14.5 10.4514 14.043 9.5375 13.1291C8.62361 12.2152 8.16667 11.1166 8.16667 9.83329C8.16667 8.54996 8.62361 7.45135 9.5375 6.53746C10.4514 5.62357 11.55 5.16663 12.8333 5.16663C14.1167 5.16663 15.2153 5.62357 16.1292 6.53746C17.0431 7.45135 17.5 8.54996 17.5 9.83329C17.5 11.1166 17.0431 12.2152 16.1292 13.1291C15.2153 14.043 14.1167 14.5 12.8333 14.5ZM12.8333 12.1666C13.475 12.1666 14.0245 11.938 14.4818 11.4806C14.9392 11.0233 15.1674 10.4742 15.1667 9.83329C15.1667 9.19163 14.938 8.64213 14.4807 8.18479C14.0233 7.72746 13.4742 7.49918 12.8333 7.49996C12.1917 7.49996 11.6422 7.72863 11.1848 8.18596C10.7275 8.64329 10.4992 9.1924 10.5 9.83329C10.5 10.475 10.7287 11.0245 11.186 11.4818C11.6433 11.9391 12.1924 12.1674 12.8333 12.1666ZM25.7833 27.9166L22.05 24.1833C21.6417 24.4166 21.2042 24.6111 20.7375 24.7666C20.2708 24.9222 19.775 25 19.25 25C17.7917 25 16.5523 24.4893 15.5318 23.4681C14.5114 22.4469 14.0008 21.2075 14 19.75C14 18.2916 14.5106 17.0518 15.5318 16.0306C16.5531 15.0094 17.7924 14.4992 19.25 14.5C20.7083 14.5 21.9481 15.0106 22.9693 16.0318C23.9906 17.053 24.5008 18.2924 24.5 19.75C24.5 20.275 24.4222 20.7708 24.2667 21.2375C24.1111 21.7041 23.9167 22.1416 23.6833 22.55L27.4167 26.2833L25.7833 27.9166ZM19.25 22.6666C20.0667 22.6666 20.7569 22.3847 21.3208 21.8208C21.8847 21.2569 22.1667 20.5666 22.1667 19.75C22.1667 18.9333 21.8847 18.243 21.3208 17.6791C20.7569 17.1152 20.0667 16.8333 19.25 16.8333C18.4333 16.8333 17.7431 17.1152 17.1792 17.6791C16.6153 18.243 16.3333 18.9333 16.3333 19.75C16.3333 20.5666 16.6153 21.2569 17.1792 21.8208C17.7431 22.3847 18.4333 22.6666 19.25 22.6666ZM3.5 23.8333V20.5958C3.5 19.9347 3.66528 19.3222 3.99583 18.7583C4.32639 18.1944 4.78333 17.7666 5.36667 17.475C6.35833 16.9694 7.47639 16.5416 8.72083 16.1916C9.96528 15.8416 11.3458 15.6666 12.8625 15.6666C12.6292 16.0166 12.4297 16.3911 12.264 16.7901C12.0983 17.1891 11.9673 17.6021 11.8708 18.0291C10.7042 18.1263 9.66389 18.3258 8.75 18.6276C7.83611 18.9294 7.06806 19.2452 6.44583 19.575C6.25139 19.6722 6.1005 19.8133 5.99317 19.9985C5.88583 20.1836 5.83256 20.3827 5.83333 20.5958V21.5H11.8708C11.9681 21.9277 12.0995 22.3361 12.2652 22.725C12.4308 23.1138 12.6299 23.4833 12.8625 23.8333H3.5Z" fill="#828282"/>
</svg>
