<svg width="40" height="40" viewBox="0 0 40 40" fill="none" xmlns="http://www.w3.org/2000/svg">
<path d="M20 20C18.1666 20 16.5972 19.3472 15.2916 18.0416C13.9861 16.7361 13.3333 15.1666 13.3333 13.3333C13.3333 11.5 13.9861 9.93052 15.2916 8.62496C16.5972 7.3194 18.1666 6.66663 20 6.66663C21.8333 6.66663 23.4027 7.3194 24.7083 8.62496C26.0138 9.93052 26.6666 11.5 26.6666 13.3333C26.6666 15.1666 26.0138 16.7361 24.7083 18.0416C23.4027 19.3472 21.8333 20 20 20ZM6.66663 33.3333V28.6666C6.66663 27.7222 6.90996 26.8538 7.39663 26.0616C7.88329 25.2694 8.52885 24.6655 9.33329 24.25C11.0555 23.3888 12.8055 22.7427 14.5833 22.3116C16.3611 21.8805 18.1666 21.6655 20 21.6666C21.8333 21.6666 23.6388 21.8822 25.4166 22.3133C27.1944 22.7444 28.9444 23.39 30.6666 24.25C31.4722 24.6666 32.1183 25.2711 32.605 26.0633C33.0916 26.8555 33.3344 27.7233 33.3333 28.6666V33.3333H6.66663Z" fill="#105965"/>
</svg>
