<svg width="27" height="27" viewBox="0 0 27 27" fill="none" xmlns="http://www.w3.org/2000/svg">
<path d="M13.3144 13.3144C12.0631 13.3144 10.992 12.8688 10.1009 11.9778C9.20988 11.0868 8.76436 10.0156 8.76436 8.76436C8.76436 7.51311 9.20988 6.44196 10.1009 5.55092C10.992 4.65988 12.0631 4.21436 13.3144 4.21436C14.5656 4.21436 15.6368 4.65988 16.5278 5.55092C17.4188 6.44196 17.8644 7.51311 17.8644 8.76436C17.8644 10.0156 17.4188 11.0868 16.5278 11.9778C15.6368 12.8688 14.5656 13.3144 13.3144 13.3144ZM4.21436 22.4144V19.2294C4.21436 18.5848 4.38043 17.9921 4.71258 17.4514C5.04473 16.9108 5.48532 16.4986 6.03436 16.215C7.20977 15.6273 8.40415 15.1863 9.61748 14.8921C10.8308 14.5978 12.0631 14.4511 13.3144 14.4519C14.5656 14.4519 15.7979 14.599 17.0112 14.8932C18.2246 15.1874 19.4189 15.628 20.5944 16.215C21.1441 16.4994 21.5851 16.9119 21.9173 17.4526C22.2494 17.9933 22.4151 18.5855 22.4144 19.2294V22.4144H4.21436Z" fill="#105965"/>
</svg>
