<svg width="24" height="28" viewBox="0 0 24 28" fill="none" xmlns="http://www.w3.org/2000/svg">
<path d="M21.3333 3.50004C22.0406 3.50004 22.7189 3.78099 23.219 4.28109C23.719 4.78119 24 5.45946 24 6.16671V24.8334C24 25.5406 23.719 26.2189 23.219 26.719C22.7189 27.2191 22.0406 27.5 21.3333 27.5H2.66667C1.95942 27.5 1.28115 27.2191 0.781048 26.719C0.280951 26.2189 0 25.5406 0 24.8334V6.16671C0 5.45946 0.280951 4.78119 0.781048 4.28109C1.28115 3.78099 1.95942 3.50004 2.66667 3.50004H8.24C8.8 1.95337 10.2667 0.833374 12 0.833374C13.7333 0.833374 15.2 1.95337 15.76 3.50004H21.3333ZM12 3.50004C11.6464 3.50004 11.3072 3.64052 11.0572 3.89056C10.8071 4.14061 10.6667 4.47975 10.6667 4.83337C10.6667 5.187 10.8071 5.52613 11.0572 5.77618C11.3072 6.02623 11.6464 6.16671 12 6.16671C12.3536 6.16671 12.6928 6.02623 12.9428 5.77618C13.1929 5.52613 13.3333 5.187 13.3333 4.83337C13.3333 4.47975 13.1929 4.14061 12.9428 3.89056C12.6928 3.64052 12.3536 3.50004 12 3.50004ZM5.33333 8.83337V6.16671H2.66667V24.8334H21.3333V6.16671H18.6667V8.83337H5.33333ZM12 11.5C12.7072 11.5 13.3855 11.781 13.8856 12.2811C14.3857 12.7812 14.6667 13.4595 14.6667 14.1667C14.6667 14.874 14.3857 15.5522 13.8856 16.0523C13.3855 16.5524 12.7072 16.8334 12 16.8334C11.2928 16.8334 10.6145 16.5524 10.1144 16.0523C9.61429 15.5522 9.33333 14.874 9.33333 14.1667C9.33333 13.4595 9.61429 12.7812 10.1144 12.2811C10.6145 11.781 11.2928 11.5 12 11.5ZM6.66667 22.1667V20.8334C6.66667 19.3667 9.05333 18.1667 12 18.1667C14.9467 18.1667 17.3333 19.3667 17.3333 20.8334V22.1667H6.66667Z" fill="#6D6D6D"/>
</svg>
