<?xml version="1.0" encoding="UTF-8"?>
<svg id="Camada_2" data-name="Camada 2" xmlns="http://www.w3.org/2000/svg" viewBox="0 0 302.34 301">
  <defs>
    <style>
      .cls-1 {
        fill: #23a2af;
      }

      .cls-2 {
        fill: #232323;
      }

      .cls-2, .cls-3, .cls-4, .cls-5 {
        stroke-miterlimit: 10;
        stroke-width: 2px;
      }

      .cls-2, .cls-5 {
        stroke: #232323;
      }

      .cls-3 {
        fill: #fff;
      }

      .cls-3, .cls-4 {
        stroke: #fff;
      }

      .cls-4, .cls-5 {
        fill: none;
      }

      .cls-6 {
        fill: #105965;
      }
    </style>
  </defs>
  <g id="Camada_1-2" data-name="Camada 1">
    <g>
      <path class="cls-6" d="M289.11,78.34h-40.1c.21,2.65-1.39,5.47-4.81,5.46-9.89-.02-16.44-8.57-20.17-16.86-5.07-11.29-2.93-22.95-1.75-34.79,.48-4.78,.54-9.53,.19-14.33-.16-2.11-.42-9.71-2.19-10.71-1.34-.75-5.85-.12-7.28-.23-2.94-.21-5.89-.45-8.83-.66-5.87-.42-11.74-.62-17.62-.75-23.78-.52-47.57-.17-71.36-.34-5.63-.04-11.29-.05-16.89,.6-4,.46-10.7,1.03-13.76,3.99-3.53,3.42-3.24,9.52-2.39,13.88,1.02,5.21,2.03,10.03,2.14,15.37,.2,9.46,.96,19.65-1.91,28.84-1.35,4.33-3.77,8.29-7.85,10.5-3.72,2.01-7.99,1.85-12.05,2.47-2.08,.32-3.77-.52-4.87-1.82-22.67,1-56.85-8.66-57.61,12.6v123.53c0,7.31,5.93,13.24,13.24,13.24h50.87c7.31,0,13.24,5.93,13.24,13.24v46.19c0,7.31,5.93,13.24,13.24,13.24h123.53c7.31,0,13.24-5.93,13.24-13.24v-46.19c0-7.31,5.93-13.24,13.24-13.24h48.53c7.31,0,13.24-5.93,13.24-13.24V91.58c0-7.31-5.93-13.24-13.24-13.24Z"/>
      <path class="cls-1" d="M247.94,77.5c-1.51,.87-3.37,1.02-4.83,.05-7.88-.36-15.54-4.3-15.44-13.44,0,0,0-50.87,0-50.87,0-7.31-5.47-13.24-12.78-13.24H90.91c-7.31,0-13.24,5.93-13.24,13.24v50.87c.19,10.11-8.77,13.3-17.27,13.48-1.52,1.65-3.74,1.64-5.52,.66-8.6,18.73-12.61,46.03,15.51,71.52,49.22,44.64,81.36,76.01,81.36,76.01l74.51-72.39s44.58-30.58,21.69-75.88Z"/>
      <path class="cls-4" d="M71.19,54.77s-49.22,50.19,0,94.83c49.22,44.64,81.36,76.01,81.36,76.01l74.51-72.39s59.84-41.02,5.31-98.44"/>
      <path class="cls-2" d="M76.36,48.51c-8.9-4.17-8.95,12.28-.02,8.12l.02-8.12Z"/>
      <path class="cls-2" d="M230.72,47.88c-.87,0-1.68,.25-2.38,.67v8.04c6.83,3.86,10.23-8.51,2.38-8.71Z"/>
      <g>
        <g>
          <line class="cls-3" x1="152.34" y1="226" x2="151.76" y2="284.59"/>
          <path class="cls-3" d="M157.03,289.28c.09,6.08-9.46,6.08-9.37,0-.09-6.08,9.46-6.08,9.37,0Z"/>
        </g>
        <line class="cls-3" x1="152.34" y1="228.34" x2="152.36" y2="226"/>
      </g>
      <g>
        <path class="cls-5" d="M249.67,79.04c-4.16-9.55-9.67-18.18-15.95-25.79"/>
        <path class="cls-5" d="M69.94,53.25c-6.23,7.95-11.22,17.31-15.11,27.2"/>
      </g>
    </g>
  </g>
</svg>